<svg id="Layer_1" data-name="Layer 1" xmlns="http://www.w3.org/2000/svg" xmlns:xlink="http://www.w3.org/1999/xlink" viewBox="0 0 512 512"><defs><style>.cls-1{fill:#fff;}.cls-2{fill:url(#linear-gradient);}.cls-3{fill:#1d1d1b;}</style><linearGradient id="linear-gradient" x1="25.51" y1="256" x2="486.49" y2="256" gradientUnits="userSpaceOnUse"><stop offset="0" stop-color="#fdc800"/><stop offset="0.02" stop-color="#fdca01"/><stop offset="0.3" stop-color="#fce10c"/><stop offset="0.47" stop-color="#fcea10"/><stop offset="1" stop-color="#f9b233"/></linearGradient></defs><title>Devbee-Final web icons 26Mar21</title><path class="cls-1" d="M256,512a82.33,82.33,0,0,1-58.6-24.27L24.27,314.6a82.88,82.88,0,0,1,0-117.2L197.4,24.27a82.88,82.88,0,0,1,117.2,0L487.73,197.4a82.88,82.88,0,0,1,0,117.2L314.6,487.73A82.34,82.34,0,0,1,256,512Z"/><path class="cls-2" d="M256,486.49a57,57,0,0,1-40.56-16.8L42.31,296.56a57.36,57.36,0,0,1,0-81.12L215.44,42.31a57.36,57.36,0,0,1,81.12,0L469.69,215.44a57.36,57.36,0,0,1,0,81.12L296.56,469.69A57,57,0,0,1,256,486.49Z"/><path class="cls-3" d="M256,29.34A53.16,53.16,0,0,1,293.86,45L467,218.14a53.6,53.6,0,0,1,0,75.72L293.86,467a53.55,53.55,0,0,1-75.72,0L45,293.86a53.6,53.6,0,0,1,0-75.72L218.14,45A53.16,53.16,0,0,1,256,29.34m0-7.65a61,61,0,0,0-43.27,17.92L39.61,212.73a61.19,61.19,0,0,0,0,86.54L212.73,472.39a61.2,61.2,0,0,0,86.54,0L472.39,299.27a61.19,61.19,0,0,0,0-86.54L299.27,39.61A61,61,0,0,0,256,21.69Z"/><path class="cls-3" d="M216.26,286.53l36.8-36.8a7.65,7.65,0,0,0,0-10.82l-3.25-3.26a7.67,7.67,0,0,0-10.82,0l-42.21,42.22-3.26,3.25a7.67,7.67,0,0,0,0,10.82l3.26,3.25h0L239,337.41a7.67,7.67,0,0,0,10.82,0l3.25-3.26a7.63,7.63,0,0,0,0-10.81Z"/><path class="cls-3" d="M368.54,281.18l-8.53-5-40.57-40.57a7.67,7.67,0,0,0-10.82,0l-3.25,3.26a7.67,7.67,0,0,0,0,10.82l36.81,36.8-36.81,36.81a7.65,7.65,0,0,0,0,10.81l3.25,3.26a7.67,7.67,0,0,0,10.82,0L360,296.84h0l8-4.67,9.7-5.64Z"/><path class="cls-3" d="M154.11,316.91a7.64,7.64,0,0,1-5.41-2.23L126,291.94a7.65,7.65,0,0,1,0-10.81l22.74-22.74a7.84,7.84,0,0,1,10.82,0l22.74,22.74a7.65,7.65,0,0,1,0,10.81l-22.74,22.74A7.64,7.64,0,0,1,154.11,316.91Zm0-53.12-22.74,22.75,22.74,22.73,22.74-22.74Z"/><path class="cls-3" d="M274,338.66h0c-5.47-.47-9.49-5-9-10l8.64-85.92c.5-5.06,5.35-8.78,10.82-8.31h0c5.47.47,9.5,5,9,10l-8.63,85.92C284.3,335.4,279.45,339.13,274,338.66Z"/><rect class="cls-3" x="270.12" y="169.94" width="19.9" height="60.79" rx="7.65" transform="translate(255.36 -143.12) rotate(50.31)"/><path class="cls-3" d="M249.79,198.73s3.1-10.94,6-28.23c2.25-13.38,18.63-17.76,19.77-8.64S279,185.24,256,201C252,204.32,248.8,200.5,249.79,198.73Z"/><path class="cls-3" d="M144.94,285.89a3.92,3.92,0,0,1-1.79-.45,3.77,3.77,0,0,1-1.36-1.33,6.77,6.77,0,0,1,.83-1,4.69,4.69,0,0,1,1-.86,4.29,4.29,0,0,1,2.45-.75,6,6,0,0,1,2,.37,8.75,8.75,0,0,1,1.24.55,7,7,0,0,0-3.11,3.22A2.84,2.84,0,0,1,144.94,285.89Z"/><path class="cls-3" d="M146.05,282.58h0a4.89,4.89,0,0,1,1,.11,8,8,0,0,0-1.62,2.06,1.64,1.64,0,0,1-.45.05,2.8,2.8,0,0,1-1.21-.28,3.14,3.14,0,0,1-.56-.42,3.46,3.46,0,0,1,.33-.35,3.41,3.41,0,0,1,.71-.61,3.12,3.12,0,0,1,1.83-.56m0-2.18a5.31,5.31,0,0,0-3.05.93,5.7,5.7,0,0,0-1.15,1,6.94,6.94,0,0,0-1.29,1.74,4.8,4.8,0,0,0,2.09,2.34,5.09,5.09,0,0,0,2.3.58,3.9,3.9,0,0,0,2.08-.58,6.5,6.5,0,0,1,4.67-3.74,12.61,12.61,0,0,0-3.28-1.84,7.27,7.27,0,0,0-2.37-.43Z"/><path class="cls-3" d="M143,294.48s9.66,4,13.24-5.37c1.27-1.92,7.35-.52,4.72,4.2s-4.5,9.64-7.13,10-6.92-5.39-7.4-5.91A8.17,8.17,0,0,0,143,294.48Z"/><path class="cls-3" d="M154.11,263.15a3.83,3.83,0,0,1-3.83-3.83V231.66a3.83,3.83,0,1,1,7.65,0v27.66A3.82,3.82,0,0,1,154.11,263.15Z"/><path class="cls-3" d="M147.48,269.25a3.85,3.85,0,0,1-3.32-1.91l-13.83-24a3.82,3.82,0,1,1,6.62-3.83l13.84,24a3.82,3.82,0,0,1-3.31,5.74Z"/><path class="cls-3" d="M129.48,246.55a11.41,11.41,0,1,1,11.42-11.41A11.42,11.42,0,0,1,129.48,246.55Zm0-15.17a3.76,3.76,0,1,0,3.77,3.76A3.76,3.76,0,0,0,129.48,231.38Z"/><path class="cls-3" d="M154.11,235.48a11.41,11.41,0,1,1,11.41-11.41A11.42,11.42,0,0,1,154.11,235.48Zm0-15.17a3.76,3.76,0,1,0,3.76,3.76A3.76,3.76,0,0,0,154.11,220.31Z"/></svg>